# xmcd CD database file
#
# Track frame offsets:
#	150
#	1199
#	8416
#	26894
#	67653
#	101840
#	127960
#	147584
#	196261
#	244119
#	276930
#	295987
#	337388
#
# Disc length: 4502 seconds
#
# Revision: 0
# Processed by: cddbd v1.5.2PL0 Copyright (c) Steve Scherf et al.
# Submitted via: CDex 1.70beta2
#
DISCID=bc11940d
DTITLE=Riccarelli, Ugo - Der vollkommene Schmerz
DYEAR=2007
DGENRE=Hoerbuch
TTITLE0=01
TTITLE1=02
TTITLE2=03
TTITLE3=04
TTITLE4=05
TTITLE5=06
TTITLE6=07
TTITLE7=08
TTITLE8=09
TTITLE9=10
TTITLE10=11
TTITLE11=12
TTITLE12=13
EXTD=YEAR: 2007
EXTT0=
EXTT1=
EXTT2=
EXTT3=
EXTT4=
EXTT5=
EXTT6=
EXTT7=
EXTT8=
EXTT9=
EXTT10=
EXTT11=
EXTT12=
PLAYORDER=
